<?xml version="1.0" encoding="utf-8"?>
<!DOCTYPE svg PUBLIC "-//W3C//DTD SVG 20010904//EN" "http://www.w3.org/TR/2001/REC-SVG-20010904/DTD/svg10.dtd">
<svg version="1.0" width="25.5pt" height="21pt" viewBox="0 0 25.5 21" preserveAspectRatio="xMidYMid meet" xmlns="http://www.w3.org/2000/svg">
  <g transform="translate(0,21)scale(.075,.075)">
    <path id="path1" d="M 1 -228 c 0 29 3 46 6 38 9 -23 35 -51 68 -71 l 30 -19 -53 0 -52 0 1 52 z M 266 -261 c 17 10 40 31 52 46 l 22 28 0 -47 0 -46 -52 0 -53 0 31 19 z M 80 -210 c 0 5 14 16 30 25 27 14 30 20 30 65 0 27 4 52 10 55 6 4 10 -17 10 -55 0 -57 -2 -61 -32 -80 -37 -22 -48 -25 -48 -10 z M 212 -202 c -31 15 -32 17 -32 79 0 40 4 62 10 58 6 -3 10 -28 10 -55 0 -41 4 -51 27 -68 36 -26 27 -34 -15 -14 z M 90 -136 c 0 19 5 38 10 41 6 4 10 -8 10 -29 0 -19 -5 -38 -10 -41 -6 -4 -10 8 -10 29 z M 238 -164 c -5 4 -8 23 -8 43 1 30 2 33 11 18 11 -19 8 -73 -3 -61 z M 0 -60 c 0 43 0 44 16 22 14 -20 14 -24 0 -44 -16 -22 -16 -21 -16 22 z M 325 -80 c -7 23 -47 52 -90 68 -27 9 -23 11 37 11 l 68 1 0 -50 c 0 -53 -5 -63 -15 -30 z M 45 -10 c -14 6 -2 9 40 8 44 0 54 -2 35 -8 -33 -10 -51 -10 -75 0 z " />
  </g>
</svg>